HIERARCHY
ROOT Hips
{
  OFFSET -69.4423 88.0299 51.6846
  CHANNELS 6 Xposition Yposition Zposition Zrotation Xrotation Yrotation
  JOINT Spine
  {
    OFFSET 12.0259 -0.162853 1.93176e-005
    CHANNELS 3 Zrotation Xrotation Yrotation
    JOINT Spine1
    {
      OFFSET 15.3169 -0.0121909 0
      CHANNELS 3 Zrotation Xrotation Yrotation
      JOINT Spine2
      {
        OFFSET 15.3176 -0.0121922 0
        CHANNELS 3 Zrotation Xrotation Yrotation
        JOINT Neck
        {
          OFFSET 19.9142 1.56236 0
          CHANNELS 3 Zrotation Xrotation Yrotation
          JOINT Head
          {
            OFFSET 6.92646 0 0
            CHANNELS 3 Zrotation Xrotation Yrotation
            End Site
            {
              OFFSET 20.7666 0 0
            }
          }
          JOINT LeftShoulder
          {
            OFFSET -4.94072 -1.14703 8.14416
            CHANNELS 3 Zrotation Xrotation Yrotation
            JOINT LeftArm
            {
              OFFSET 14.108 0 -2.74767e-005
              CHANNELS 3 Zrotation Xrotation Yrotation
              JOINT LeftForeArm
              {
                OFFSET 28.5802 -0.0783412 -0.0284884
                CHANNELS 3 Zrotation Xrotation Yrotation
                JOINT LeftHand
                {
                  OFFSET 27.092 0 0
                  CHANNELS 3 Zrotation Xrotation Yrotation
                  End Site
                  {
                    OFFSET 9.55928 -0.186424 0.145352
                  }
                }
              }
            }
          }
          JOINT RightShoulder
          {
            OFFSET -7.15748 -1.33027 -6.24935
            CHANNELS 3 Zrotation Xrotation Yrotation
            JOINT RightArm
            {
              OFFSET 14.108 0 1.82997e-005
              CHANNELS 3 Zrotation Xrotation Yrotation
              JOINT RightForeArm
              {
                OFFSET 28.5802 -0.0707221 2.30684e-005
                CHANNELS 3 Zrotation Xrotation Yrotation
                JOINT RightHand
                {
                  OFFSET 27.092 0 -1.30073e-005
                  CHANNELS 3 Zrotation Xrotation Yrotation
                  End Site
                  {
                    OFFSET 9.55929 -0.186417 -0.145354
                  }
                }
              }
            }
          }
        }
      }
    }
  }
  JOINT LeftUpLeg
  {
    OFFSET 0.00499725 -0.534999 8.837
    CHANNELS 3 Zrotation Xrotation Yrotation
    JOINT LeftLeg
    {
      OFFSET 39.9035 -0.00124594 0.000252775
      CHANNELS 3 Zrotation Xrotation Yrotation
      JOINT LeftFoot
      {
        OFFSET 39.6689 0 0
        CHANNELS 3 Zrotation Xrotation Yrotation
        JOINT LeftToe
        {
          OFFSET 10.1624 13.6296 0
          CHANNELS 3 Zrotation Xrotation Yrotation
          End Site
          {
            OFFSET 8.38147 0 0
          }
        }
      }
    }
  }
  JOINT RightUpLeg
  {
    OFFSET 0.00499725 -0.535 -8.837
    CHANNELS 3 Zrotation Xrotation Yrotation
    JOINT RightLeg
    {
      OFFSET 39.9036 -0.000268477 0.000106433
      CHANNELS 3 Zrotation Xrotation Yrotation
      JOINT RightFoot
      {
        OFFSET 39.6689 1.17892e-005 0
        CHANNELS 3 Zrotation Xrotation Yrotation
        JOINT RightToe
        {
          OFFSET 10.1624 13.6296 0
          CHANNELS 3 Zrotation Xrotation Yrotation
          End Site
          {
            OFFSET 8.38147 0 0
          }
        }
      }
    }
  }
}
MOTION
Frames:	14
Frame Time:	0.0333333
86.3669 88.4109 -60.4435 96.6951 59.2769 -4.47646 0.433977 -0.114125 0.155231 0.868267 -0.226597 0.311501 0.868267 -0.226592 0.311483 -14.8666 -3.0496 -13.009 36.1202 -3.99342 12.9024 -167.75 -5.42834 -95.6278 -18.9802 7.02782 86.9809 -24.0871 2.64213 -15.3512 6.43207 -82.0776 8.86532 -167.523 -7.0816 72.8043 -16.0457 -5.23893 -84.2434 -23.0876 -2.75187 14.2642 2.4758 82.8055 -2.26092 -7.87917 -0.779515 179.412 -23.0478 0.996175 -1.19597 5.01963 -2.0353 0.452893 90 -1.35174e-014 6.36111e-015 -9.70315 -3.15294 -176.372 -31.9424 -0.579818 0.192083 9.59781 6.04807 -1.01437 90 -2.70347e-014 -6.36111e-015 
86.2486 88.3819 -60.4491 96.4439 59.2516 -4.41997 0.48102 -0.110986 0.232181 0.962498 -0.219476 0.465451 0.96249 -0.219486 0.465444 -14.6722 -2.93119 -13.1125 36.0062 -4.01948 12.4185 -167.923 -5.29034 -95.7716 -18.4556 7.00565 87.3434 -24.1357 2.65386 -15.3866 6.31434 -82.314 8.75001 -167.691 -6.91449 72.6375 -15.4657 -5.31142 -84.0446 -22.6034 -2.64621 13.999 2.25918 82.1646 -2.02496 -8.03817 -1.06218 179.577 -23.6058 0.998607 -1.18865 5.17179 -2.29679 0.457981 90 2.38542e-015 1.27222e-014 -9.41834 -3.153 -176.139 -31.7218 -0.584261 0.191331 9.59382 6.00118 -1.01398 90 -3.18055e-014 -0 
86.1115 88.3529 -60.4157 96.0528 58.994 -4.15051 0.540482 -0.00279799 0.222162 1.08099 -0.00305418 0.444505 1.08098 -0.00306129 0.444493 -14.4711 -2.90189 -13.1068 35.9495 -3.80424 12.5819 -168.107 -5.23136 -95.7942 -18.5887 7.104 87.1248 -24.208 2.65817 -15.4147 6.7684 -82.6664 9.22103 -167.884 -6.84977 72.6215 -15.1476 -5.54247 -84.1806 -22.4619 -2.61706 13.9192 2.39015 82.291 -2.15026 -7.86555 -1.19732 179.641 -23.8766 0.988719 -1.18429 5.31054 -2.81441 0.454694 90 -2.3059e-014 -9.54166e-015 -9.18538 -2.93924 -175.964 -31.728 -0.587044 0.189801 9.59953 6.03699 -1.01412 90 -3.18055e-014 -2.22639e-014 
86.0139 88.3748 -60.4828 96.2635 59.2241 -4.36981 0.565724 -0.0424146 0.22049 1.13162 -0.0822039 0.441549 1.13161 -0.0822056 0.441535 -14.6506 -2.86515 -12.9602 36.3937 -3.88118 12.3254 -167.903 -5.18416 -95.6438 -18.7293 7.18809 86.8425 -24.2025 2.66066 -15.4012 6.3713 -82.6513 8.83435 -167.677 -6.80807 72.7743 -14.8012 -5.4477 -84.2029 -22.3741 -2.59207 13.861 2.06871 81.8076 -1.82697 -8.21798 -1.01136 179.84 -24.2817 0.986252 -1.16492 5.39062 -2.29446 0.475697 90 -3.26007e-014 -1.27222e-014 -9.16144 -2.79921 -175.726 -31.4749 -0.59052 0.190042 9.35763 6.4706 -0.967467 90 -1.51076e-014 -1.27222e-014 
85.9236 88.3721 -60.5026 96.3278 59.5584 -4.52373 0.606934 -0.0598365 0.258181 1.21414 -0.116357 0.517139 1.21413 -0.116388 0.517136 -14.6252 -2.8381 -13.0186 36.5354 -3.93336 12.1588 -167.93 -5.16283 -95.7305 -18.9007 7.34959 86.9249 -24.517 2.71525 -15.5602 6.95104 -82.9195 9.36882 -167.699 -6.77384 72.7072 -14.6665 -5.31008 -84.198 -22.3747 -2.5961 13.8654 2.02922 81.8579 -1.78655 -8.49165 -1.24324 179.947 -24.7016 0.988621 -1.15514 5.33788 -2.29954 0.471497 90 3.18055e-015 -1.27222e-014 -9.09508 -2.79978 -175.512 -31.4053 -0.592705 0.191174 9.3515 6.81397 -0.96382 90 -2.38542e-015 -3.18055e-015 
85.8037 88.3275 -60.4367 96.0815 59.6532 -4.26852 0.609275 -0.0844107 0.259401 1.21896 -0.165546 0.519848 1.21894 -0.165544 0.519828 -14.0028 -2.70678 -12.9157 36.2024 -3.64328 11.908 -168.499 -4.88063 -95.7281 -18.5989 7.54353 86.8 -24.5759 2.72607 -15.58 6.65065 -82.9517 9.09555 -168.275 -6.48541 72.7264 -14.8639 -5.62253 -84.2966 -22.5422 -2.62978 13.9541 2.07712 81.9595 -1.8289 -8.43852 -1.34547 179.892 -24.9419 0.993249 -1.14745 5.35355 -2.55953 0.462996 90 -1.11319e-014 -1.59028e-014 -8.92829 -2.98326 -175.547 -31.4834 -0.595744 0.192576 9.42216 6.72665 -0.976489 90 -9.54166e-015 -1.27222e-014 
85.6691 88.3318 -60.5064 95.9953 59.8944 -4.36173 0.690938 -0.0905366 0.296983 1.38234 -0.174237 0.595181 1.38232 -0.174248 0.595164 -14.2467 -2.43284 -12.4751 36.5719 -3.57157 10.9554 -168.151 -4.51595 -95.3424 -18.6577 7.36485 86.6156 -24.6749 2.74978 -15.6299 7.05399 -82.8931 9.51406 -167.933 -6.13986 73.108 -14.7832 -5.27961 -84.2571 -22.605 -2.64238 13.9839 2.12923 81.8608 -1.865 -8.79635 -1.77858 -179.939 -25.6256 0.997563 -1.1345 5.38069 -2.87034 0.458222 90 1.82882e-014 9.54166e-015 -8.67474 -2.91318 -175.2 -31.1942 -0.60119 0.193631 9.45705 6.98939 -0.981789 90 -1.59028e-014 -6.36111e-015 
85.5588 88.3086 -60.4311 95.8561 60.0647 -4.27935 0.670595 -0.112884 0.328917 1.34187 -0.221401 0.659322 1.34186 -0.221423 0.659301 -13.7657 -2.34386 -12.6458 36.7494 -3.2241 11.0771 -168.626 -4.38244 -95.5907 -18.703 7.70282 86.6513 -24.8426 2.77494 -15.7084 7.32753 -83.3647 9.7778 -168.412 -6.00056 72.8959 -15.4279 -5.63981 -84.3366 -22.9363 -2.71773 14.1768 2.26759 82.2314 -2.03395 -9.27614 -1.87077 -179.908 -26.7924 0.998991 -1.09652 5.58552 -2.80541 0.477326 90 1.19271e-014 4.13472e-014 -8.31185 -3.52892 -175.267 -30.9234 -0.606594 0.193716 9.5645 6.55272 -1.00227 90 7.95139e-015 1.27222e-014 
85.5185 88.3553 -60.4419 96.1256 60.684 -4.57034 0.702868 -0.163596 0.3681 1.40678 -0.322167 0.738347 1.40676 -0.322175 0.738326 -13.6257 -2.23809 -12.9851 37.1609 -2.85099 11.336 -168.756 -4.31738 -95.9512 -18.6712 7.3542 86.4837 -24.8941 2.78533 -15.7477 6.86529 -83.1458 9.31145 -168.559 -5.98114 72.5374 -15.7166 -5.50415 -84.2443 -23.166 -2.76967 14.3036 2.43369 82.66 -2.20631 -10.6746 -1.52006 -179.802 -29.0259 0.993842 -1.0211 5.72895 -1.95655 0.507303 90 -1.03368e-014 -3.18055e-015 -8.06085 -3.77942 -175.168 -30.3277 -0.619566 0.192212 9.17483 6.99123 -0.923568 90 1.03368e-014 6.36111e-015 
85.4566 88.4468 -60.455 96.0402 61.5454 -4.86566 0.738697 -0.186289 0.465941 1.4789 -0.366207 0.934415 1.4789 -0.36621 0.934412 -14.3199 -1.99163 -12.4045 39.6975 -3.24864 9.88518 -167.968 -3.9866 -95.3946 -18.7836 7.06248 86.3427 -24.9062 2.79205 -15.7681 6.83986 -83.3104 9.33484 -167.8 -5.70322 73.0977 -15.9486 -5.64094 -84.2234 -23.3659 -2.82039 14.4256 2.61612 82.8185 -2.38762 -12.5627 -1.74376 -179.525 -32.1117 0.976838 -0.922379 5.26201 -1.3872 0.467451 90 1.03368e-014 3.18055e-015 -7.36389 -4.12324 -174.711 -29.3574 -0.639771 0.188499 8.72101 7.52507 -0.826777 90 -2.22639e-014 -6.36111e-015 
85.4152 88.4402 -60.3802 95.655 62.3909 -5.0132 0.866458 -0.181019 0.619837 1.73485 -0.352198 1.24251 1.73484 -0.3522 1.2425 -14.6432 -1.6584 -12.3461 41.3281 -2.9462 9.26897 -167.561 -3.65015 -95.3922 -19.1954 6.40752 86.3276 -25.0804 2.82959 -15.8932 6.69742 -83.627 9.26343 -167.415 -5.44568 73.0901 -15.9855 -5.41217 -83.8612 -23.3799 -2.82415 14.4356 2.58699 82.7528 -2.35557 -14.9187 -1.49266 -179.039 -35.9501 0.937003 -0.802639 4.87442 -0.601938 0.441976 90 1.11319e-014 6.36111e-015 -6.53425 -4.64985 -174.195 -28.5328 -0.665011 0.178367 8.76227 7.75162 -0.827737 90 6.36111e-015 -0 
85.3317 88.5165 -60.1939 95.0731 62.7852 -4.84263 0.996169 -0.0375221 0.702082 1.99273 -0.0623561 1.40487 1.99273 -0.0623541 1.40487 -14.7848 -1.46243 -12.2484 42.9787 -2.69199 8.98614 -167.364 -3.4275 -95.3583 -19.904 6.15062 86.202 -25.5384 2.91255 -16.1503 6.56052 -84.3151 9.18349 -167.23 -5.27785 73.1567 -16.3549 -5.4501 -83.7063 -23.4703 -2.84757 14.4856 2.64497 82.5024 -2.41746 -16.9855 -0.804572 -178.52 -38.8658 0.88928 -0.71846 4.85609 0.530838 0.460043 90 -2.06736e-014 -2.54444e-014 -5.52448 -4.98027 -173.864 -27.5585 -0.689113 0.171425 8.91305 7.55655 -0.855536 90 1.27222e-014 9.54166e-015 
85.2038 88.636 -59.9639 94.9755 62.7739 -4.9405 1.10183 0.229907 0.751722 2.20063 0.474729 1.49906 2.20062 0.474711 1.49906 -14.7931 -1.44413 -12.1222 44.0952 -2.76768 8.77241 -167.341 -3.36262 -95.3018 -20.7048 6.07372 86.3521 -26.4029 3.07862 -16.6108 6.22325 -83.9554 8.83312 -167.205 -5.23251 73.2965 -17.4243 -5.87861 -83.6118 -24.1722 -3.00924 14.8684 3.18015 83.5323 -2.99008 -19.0784 0.0791127 -177.965 -40.066 0.842234 -0.699142 5.57567 2.83726 0.54108 90 1.90833e-014 9.54166e-015 -4.751 -4.75206 -173.612 -26.3769 -0.707508 0.173342 7.72308 7.87558 -0.612644 90 -7.95139e-015 -9.54166e-015 
85.1142 88.7129 -59.6222 94.8718 62.9241 -4.78336 1.18307 0.371429 0.729217 2.36139 0.758272 1.4508 2.36139 0.758273 1.4508 -14.4951 -1.40391 -11.9717 44.6141 -2.68141 8.61944 -167.628 -3.23109 -95.234 -21.2198 6.36907 86.4897 -27.2263 3.24425 -17.0334 8.68949 -84.4383 11.2054 -167.46 -5.10223 73.4258 -17.6813 -5.55735 -83.4993 -23.8728 -2.94194 14.7127 3.02678 83.0965 -2.84381 -20.6376 0.562659 -177.784 -39.0154 0.819271 -0.773094 5.66654 3.19749 0.572122 90 -1.90833e-014 -0 -4.01081 -4.62289 -173.634 -25.4116 -0.721387 0.182257 7.32027 8.23581 -0.521128 90 -1.90833e-014 -1.90833e-014 
